#!OML:ASF H:\BreakDance\Project 1\Capture day 1\Session 1\Male.ASF
:FULLY-SPECIFIED
:DEGREES
1826
root -0.792935 15.9265 1.7527 551.664 -79.3582 168.659
lowerback -0.755038 -4.16579 -3.40278
upperback 6.58809 -5.65736 0.541136
thorax 7.7059 -3.0992 2.01236
lowerneck 1.77871 5.09377 0.755552
upperneck -4.31205 6.55342 -5.75142
head -1.42334 3.35211 -2.04414
rclavicle 3.34207e-014 -1.19271e-015
rhumerus 29.4745 22.6558 -35.5426
rradius 91.1509
rwrist -18.7454
rhand -13.5916 -10.8365
rfingers 7.12502
rthumb 12.5229 -40.4412
lclavicle 3.34207e-014 -1.19271e-015
lhumerus 26.6723 -45.1316 30.3137
lradius 95.3675
lwrist 14.6295
lhand -21.7555 -41.581
lfingers 7.12502
lthumb 4.64488 -11.6519
rfemur -36.901 0.906672 18.0037
rtibia 59.6163
rfoot -8.51785 5.56093
rtoes -21.3313
lfemur -10.7907 14.9821 -20.5257
ltibia 60.7192
lfoot -10.0013 -5.27781
ltoes -24.916
1827
root -0.863653 15.9492 1.7205 550.649 -81.0126 169.972
lowerback -0.617263 -3.85534 -2.67297
upperback 6.69977 -5.25747 0.229064
thorax 7.61141 -2.84667 1.32689
lowerneck 0.747893 4.49048 0.592546
upperneck -3.97764 5.80366 -4.80131
head -1.19383 2.94919 -1.66197
rclavicle -3.05538e-014 1.64619e-015
rhumerus 23.5117 23.2867 -37.6221
rradius 96.7087
rwrist -18.129
rhand -14.2126 -10.6181
rfingers 7.12502
rthumb 11.9241 -40.2585
lclavicle -3.05538e-014 1.64619e-015
lhumerus 24.3405 -48.401 31.4782
lradius 99.1115
lwrist 13.8971
lhand -20.6813 -42.0127
lfingers 7.12502
lthumb 5.68207 -12.1089
rfemur -34.7102 -0.272215 18.6379
rtibia 59.758
rfoot -10.0071 6.33316
rtoes -19.5485
lfemur -14.5418 15.5943 -19.324
ltibia 65.6749
lfoot -5.58869 -4.97493
ltoes -26.3161
1828
root -0.949778 15.9806 1.68906 548.077 -82.7523 172.991
lowerback -0.63005 -3.58279 -1.72498
upperback 6.7325 -4.91066 -0.0551103
thorax 7.5208 -2.60464 0.536389
lowerneck -0.178397 3.87466 0.429516
upperneck -3.73271 5.02467 -3.87823
head -1.00565 2.53858 -1.30651
rclavicle -2.27857e-014 1.10325e-014
rhumerus 17.4541 23.9984 -39.7857
rradius 102.086
rwrist -16.9032
rhand -14.9091 -10.2028
rfingers 7.12502
rthumb 11.2524 -39.881
lclavicle -2.27857e-014 1.10325e-014
lhumerus 21.3405 -51.6118 33.2152
lradius 102.39
lwrist 13.0342
lhand -19.1911 -42.2061
lfingers 7.12502
lthumb 7.12064 -12.3459
rfemur -32.434 -1.56733 19.4314
rtibia 59.0516
rfoot -12.0022 6.75605
rtoes -16.8356
lfemur -18.4313 16.1016 -18.1009
ltibia 70.326
lfoot -2.18349 -4.40239
ltoes -27.5699
1829
root -1.05189 16.0208 1.65732 542.166 -84.4793 179.459
lowerback -0.751517 -3.33922 -0.676939
upperback 6.6913 -4.60804 -0.256072
thorax 7.43173 -2.37969 -0.232261
lowerneck -0.881942 3.24559 0.288419
upperneck -3.71994 4.20922 -3.10256
head -0.918774 2.11777 -1.02072
rclavicle -1.89342e-014 3.97569e-015
rhumerus 11.401 24.7797 -42.0115
rradius 107.235
rwrist -15.0567
rhand -15.5119 -9.46332
rfingers 7.12502
rthumb 10.671 -39.1723
lclavicle -1.89342e-014 3.97569e-015
lhumerus 17.4313 -54.5974 35.8064
lradius 105.196
lwrist 12.0822
lhand -17.3185 -42.0824
lfingers 7.12502
lthumb 8.92803 -12.2913
rfemur -30.1622 -2.93652 20.4264
rtibia 57.538
rfoot -14.4513 6.5936
rtoes -14.3056
lfemur -22.3577 16.5417 -16.8429
ltibia 74.6264
lfoot 0.0630782 -3.80998
ltoes -28.4608
1830
root -1.1671 16.0646 1.62436 529.351 -85.9829 192.876
lowerback -0.894779 -3.10252 0.332467
upperback 6.58922 -4.32028 -0.335926
thorax 7.31943 -2.16922 -0.855486
lowerneck -1.34714 2.63806 0.176237
upperneck -3.97584 3.40507 -2.54833
head -0.9445 1.7083 -0.82282
rclavicle -2.11706e-014 -7.15625e-015
rhumerus 5.44471 25.6157 -44.264
rradius 112.118
rwrist -12.6731
rhand -15.9199 -8.35263
rfingers 7.12502
rthumb 10.2774 -38.0815
lclavicle -2.11706e-014 -7.15625e-015
lhumerus 12.4116 -57.1864 39.4968
lradius 107.537
lwrist 11.0831
lhand -15.1842 -41.5978
lfingers 7.12502
lthumb 10.9871 -11.9054
rfemur -28.0005 -4.30656 21.6161
rtibia 55.3751
rfoot -16.9541 5.88046
rtoes -11.9828
lfemur -26.2337 16.9873 -15.5549
ltibia 78.568
lfoot 1.23521 -3.27658
ltoes -28.963
